# xmcd
#
# Track frame offsets: 
#        150
#        18447
#        36482
#        53342
#        67150
#        85925
#        101667
#        121387
#        136982
#        155240
#        173192
#        190305
#
# Disc length: 2777 seconds
#
# Revision: 2
# Processed by: cddbd v1.5.2PL0 Copyright (c) Steve Scherf et al.
# Submitted via: ExactAudioCopyFreeDBPlugin 1.0
#
DISCID=a80ad70c
DTITLE=芝麻與龍眼 - 民歌往事
DYEAR=1989
DGENRE=國語流行
TTITLE0=想你
TTITLE1=龍的傳人
TTITLE2=微風往事
TTITLE3=牽掛
TTITLE4=抉擇
TTITLE5=海裡來的砂
TTITLE6=偶然
TTITLE7=外婆的澎湖灣
TTITLE8=蘭花草
TTITLE9=秋蟬
TTITLE10=綿綿不斷的小雨
TTITLE11=愛情速食店
EXTD=YEAR: 1989
EXTT0=
EXTT1=
EXTT2=
EXTT3=
EXTT4=
EXTT5=
EXTT6=
EXTT7=
EXTT8=
EXTT9=
EXTT10=
EXTT11=
PLAYORDER=
